<svg width="114" height="114" viewBox="0 0 114 114" fill="none" xmlns="http://www.w3.org/2000/svg">
<circle cx="57" cy="57" r="57" fill="url(#paint0_linear_229_122)"/>
<path d="M57.814 26.8235L37.4453 58.996M57.814 26.8235L75.6007 49.6005M57.814 26.8235L84.4941 42.4827M57.814 26.8235L30.847 42.4827M37.4453 58.996L75.6007 49.6005M37.4453 58.996L30.847 72.6622M37.4453 58.996L57.814 88.3214M37.4453 58.996L67.568 74.9399M37.4453 58.996L30.847 42.4827M75.6007 49.6005L84.4941 42.4827M75.6007 49.6005L84.4941 72.6622M75.6007 49.6005L67.568 74.9399M84.4941 42.4827V72.6622M84.4941 72.6622L67.568 74.9399M84.4941 72.6622L57.814 88.3214M67.568 74.9399L57.814 88.3214M57.814 88.3214L30.847 72.6622M30.847 72.6622V42.4827" stroke="white" stroke-width="1.5"/>
<defs>
<linearGradient id="paint0_linear_229_122" x1="-5.62705e-07" y1="-14.25" x2="114" y2="136.8" gradientUnits="userSpaceOnUse">
<stop stop-color="#0044B3"/>
<stop offset="1" stop-color="#00317F"/>
</linearGradient>
</defs>
</svg>
